<?xml version="1.0" encoding="utf-8"?>
<!-- Generator: Adobe Illustrator 26.5.0, SVG Export Plug-In . SVG Version: 6.00 Build 0)  -->
<svg version="1.1" id="Layer_1" xmlns="http://www.w3.org/2000/svg" xmlns:xlink="http://www.w3.org/1999/xlink" x="0px" y="0px"
	 viewBox="0 0 1024 1024" style="enable-background:new 0 0 1024 1024;" xml:space="preserve">
<style type="text/css">
	.st0{fill:#1F366A;}
	.st1{clip-path:url(#SVGID_00000083081719692920290850000014033530721043118010_);fill:#ACACAC;fill-opacity:0.1;}
	.st2{fill:#FFFFFF;}
	.st3{fill:#F6C602;}
	.st4{fill:#D60002;}
	.st5{fill:url(#SVGID_00000089541304048124778830000008604165289319682965_);}
	.st6{fill:url(#SVGID_00000101825574406214972890000017063061935516059320_);}
</style>
<path class="st0" d="M736.7,85.2L691.8,35H107.1c-35,7.7-61.2,38.9-61.2,76.2V648v1.6l80.3,97L264,913.1l53,64.1h594.9
	c43.2,0,78.1-35,78.1-78.1V648V367.9L736.7,85.2z"/>
<g>
	<defs>
		<path id="SVGID_1_" d="M736.7,85.2L691.8,35H107.1c-35,7.7-61.2,38.9-61.2,76.2V648v1.6l80.3,97L264,913.1l53,64.1h594.9
			c43.2,0,78.1-35,78.1-78.1V648V367.9L736.7,85.2z"/>
	</defs>
	<clipPath id="SVGID_00000125583188293704388490000001147646338739873693_">
		<use xlink:href="#SVGID_1_"  style="overflow:visible;"/>
	</clipPath>
	<path style="clip-path:url(#SVGID_00000125583188293704388490000001147646338739873693_);fill:#ACACAC;fill-opacity:0.1;" d="
		M1032.9,718.7H800L674.7,593.4H551.1L505,547.3H274.2l-44.9-44.9l2.7-2.7l43.8,43.8h230.8l46.1,46.1h123.5L801.6,715h231.3V718.7z
		 M1045.5,692.2H820.3L689,560.8H556.9l-38.5-38.5H294.5l-17.4-17.4l-2.7,2.7l18.5,18.5h223.8l38.5,38.5h132.1L818.8,696h226.7
		V692.2z M303.6,362.2h117.6l35,35h219.6l103.8-103.8h49.4L1057,65.4l-2.7-2.7l-227,227H778L674.2,393.5H457.8l-35-35H302.1
		L256,404.5h-51.1L162.3,362l-2.7,2.7l43.7,43.7h54.2L303.6,362.2z M1041.3,634.4L923.3,516.4v-74.2l-41.1-41.1v-64.5l50.7-50.7
		v-63.7l45.2-45.2h77.6v-3.8h-79.2l-47.4,47.4v63.7l-50.7,50.7v67.6l41.1,41.1V518l119.2,119.2L1041.3,634.4z M901.6,551.3V445.2
		h-3.8v104.5L864,583.6H770L712.5,526h-89.7v3.8h88.1l57.6,57.6h97L901.6,551.3z M869.5,533H770l-74.3-74.3v-38.5l71.6-71.6h43.1
		l32.1,32.1v93.7h3.8v-95.2l-34.4-34.4h-46.2l-73.8,73.8v41.6l76.5,76.5h101V533z M826,416.9l-49-49l-2.7,2.7l49,49L826,416.9z
		 M850.5,514.1h-66.7L763,493.3V444l31.7-31.7l-2.7-2.7l-32.8,32.8v52.4l23.1,23.1h68.3V514.1z M101.7,653.2h51.9l56.3-56.3h196
		v-3.8H208.4l-56.3,56.3h-51.9l-43.3,43.3H-169l-33.4-33.4h-43.5l-68.1-68.1h-132.8v3.8h131.2l68.1,68.1h43.5l33.4,33.4h229
		L101.7,653.2z M250.9,375.6h-40.6l-68.1-68.1H98.7l-33.4-33.4h-229l-43.3,43.3h-51.9l-56.3,56.3h-196v3.8h197.6l56.3-56.3h51.9
		l43.3-43.3H63.7l33.4,33.4h43.5l68.1,68.1h42.2V375.6z M1057.2,459.8l-62.5-66.9H947l-31.2-31.2h-21.7v3.8h20.2l31.2,31.2h47.7
		l61.4,65.7L1057.2,459.8z M988.5,539.3L951.3,502v-50l-61.9-61.9v-32.9l91.6-91.6h52.1v-3.8h-53.6l-93.8,93.8v36l61.9,61.9v50
		l38.4,38.4L988.5,539.3z M1046.8,497.8l-50.5-50.5v-29.9l-14-14h-49l-19.2-19.2l-2.7,2.7l20.3,20.3h49l11.8,11.8v29.9l51.6,51.6
		L1046.8,497.8z M1026.7,402.1L999.6,375h-46.8l-19.8-19.8v-22.5l56.2-56.2l7,7v57.2l44.3,44.3l2.7-2.7l-43.2-43.2v-57.2l-10.8-10.8
		l-60,60v25.6l22.1,22.1H998l26,26L1026.7,402.1z M705,508.7l-54.7-54.7h-84.1l-29.1,29.1h-72.9L357.5,376.3h-54.4l-71,71h-71v3.8
		h72.6l71-71h51.2l106.8,106.8h76l29.1-29.1h81l53.6,53.6L705,508.7z M320.4,394.6h30.6v-3.8h-32.1l-75.4,75.4h-82.3v3.8H245
		L320.4,394.6z M419.7,485.4l-72.3-72.3h-27.1l-39.4,39.4l2.7,2.7l38.3-38.3h23.9l71.2,71.2L419.7,485.4z M426.2,466.8L371,411.6
		l-2.7,2.7l55.2,55.2L426.2,466.8z M551.2,443.6l-2.7-2.7l-26,26h-44.4v3.8h46L551.2,443.6z M514.2,448.1h-49.9l-65.6-65.6l-2.7,2.7
		l66.7,66.7h51.4V448.1z M660.7,432h-48.1L597,416.4H463.5v3.8h131.9l15.7,15.7h49.6V432z M875.6,428.8l-11.4-11.4V327l43.5-43.5
		v-36.1H904v34.6l-43.5,43.5V419l11.4,11.4v56.3h3.8V428.8z M855.6,306.3h-64.5v3.8h64.5V306.3z M769.7,326.5h58.2l21.3,21.3
		l2.7-2.7l-22.4-22.4h-61.3l-42.8,42.8l2.7,2.7L769.7,326.5z M1001.4,493.6l-26.1-26.1V427h-3.8v42.1l26.1,26.1v69.5h3.8V493.6z
		 M972.3,617.9L932.4,578l-2.7,2.7l39.9,39.9L972.3,617.9z M961.5,578l-33.9-33.9h-14.8v3.8h13.2l32.8,32.8L961.5,578z M950.4,664.9
		H821.8L706.1,549.2l-2.7,2.7l116.8,116.8h130.1V664.9z M1037.8,649.7h-64.6l-22.1-22.1h-45.8l-17.2-17.2h-51.7l-19,19l2.7,2.7
		l17.8-17.8h48.5l17.2,17.2h45.8l22.1,22.1h66.1V649.7z M579.8,483.9h54.9l16.6,16.6l2.7-2.7l-17.7-17.7h-58L556,502.3h-69.2v3.8
		h70.7L579.8,483.9z M348.5,445.2h-3.8v51h3.8V445.2z M335.3,445h-3.8v51h3.8V445z M322.2,444.8h-3.8v51h3.8V444.8z M-305,657.7
		l-2.7-2.7l-66.5,66.5l2.7,2.7L-305,657.7z M-319.6,642.7l-2.7-2.7l-66.5,66.5l2.7,2.7L-319.6,642.7z M-334.1,627.6l-2.7-2.7
		l-66.5,66.5l2.7,2.7L-334.1,627.6z M789.9,246.8l-2.7-2.7L691.4,340h-46l-59.3-59.3h-100l-36.5,36.5H355l-84.3-84.3H179L142.1,196
		H-33.5v3.8h174l36.9,36.9h91.7l84.3,84.3h97.7l36.5-36.5h96.9l59.3,59.3H693L789.9,246.8z M596.2,110.8h134.8l66.9-66.9l-2.7-2.7
		L729.5,107H594.7L432.5,269.1h-80.8L290,207.4H186.7L154.3,175h-262.1v3.8h260.6l32.3,32.3h103.3l61.8,61.8h83.9L596.2,110.8z
		 M588.2,87.3h128.1l55-55l-2.7-2.7l-53.9,53.9H586.7L430.1,240.1h-72.9l-54.3-54.3H195.4l-33.2-33.2h-340v3.8h338.4l33.2,33.2
		h107.5l54.3,54.3h76L588.2,87.3z M-260.8,292.2v-110l50.3-50.3h377.4l29.9,29.9h111.1l47.7,47.7h75.9L608.8,32.2l-2.7-2.7
		L430,205.7h-72.8L309.5,158H198.3l-29.9-29.9h-380.5l-52.5,52.5v110l-63.2,63.2h-138v3.8h139.6L-260.8,292.2z M-377.2,249v-67.6
		h-3.8v66.1l-83.8,83.8l2.7,2.7L-377.2,249z M-425.3,240.3v-72.7l59.1-59.1h70v-3.8h-71.6l-61.3,61.3v72.7l-36.1,36.1l2.7,2.7
		L-425.3,240.3z M-390.5,109.6V80.9l48.6-48.6l-2.7-2.7l-49.7,49.7v28.8l-17.7,17.7h-34.7v3.8h36.3L-390.5,109.6z M-416,72.1
		l45.2-45.2l-2.7-2.7l-46.3,46.3v33h3.8V72.1z M-245.1,189.5l30.2-30.2h16.9l19.4,19.4h37.7l21,21h59.8l24.8,24.8H125v-3.8H-33.8
		l-24.8-24.8h-59.8l-21-21H-177l-19.4-19.4h-20.1l-32.4,32.4v98.8h3.8V189.5z M-143.9,191.5H-177l-24.6-24.6l-2.7,2.7l25.7,25.7
		h34.7V191.5z M-63.4,206.1h-122.7l-27.7-27.7l-2.7,2.7l28.8,28.8h124.3V206.1z M316.8,314.6l-48.2-48.2H157.3l-25-25H54v3.8h76.8
		l25,25h111.3l47.1,47.1L316.8,314.6z M830.6,264.5V246l32.9-32.9v-41l34.8-34.8V34.5h-3.8v101.2l-34.8,34.8v41l-32.9,32.9V263
		l-10.8,10.8h-27.5v3.8h29.1L830.6,264.5z M917.8,150.3V96.1H914v52.6l-35,35l2.7,2.7L917.8,150.3z M981,75.8h46.2V72h-47.8l-22,22
		h-25.6l-16.1-16.1l-2.7,2.7l17.2,17.2H959L981,75.8z M992.9,39.1l-2.7-2.7l-37.9,37.9h-21.3v3.8h22.8L992.9,39.1z M1001.1,94.7
		l-2.7-2.7l-100,100l2.7,2.7L1001.1,94.7z M930,119.9l10.2-10.2h26.5v-3.8h-28.1l-12.4,12.4v28.1h3.8V119.9z M937.7,147.2v-16
		l15.1-15.1l-2.7-2.7l-16.2,16.2v16L902,177.5l2.7,2.7L937.7,147.2z M1024.7,162.4h-28l-8-8v-9.7l41.4-41.4l-2.7-2.7l-42.5,42.5
		v12.9l10.2,10.2h29.6V162.4z M1025.4,158.7h-21.8l-4.4-4.4v-9l29.3-29.3l-2.7-2.7l-30.4,30.4v12.1l6.6,6.6h23.4V158.7z
		 M1027.9,152.4l-15.7-15.7L997.7,151h21.9v-1.6l5.6,5.6L1027.9,152.4z M1012.1,142l5.3,5.3h-10.6L1012.1,142z M726.3,892.4
		l58.5-58.5h115.7l61.3-61.3h104.8v-3.8H960.2l-61.3,61.3H783.2l-60.7,60.7V990h3.8V892.4z M744.2,782.7h72.2l35-35h62.3v-3.8h-63.8
		l-35,35h-72.2L696.5,825h-93.4l-39.4-39.4v-49.3l-43-43v-67.8l-56.3-56.3H229.6l-26.9-26.9h-41.7v3.8h40.1l26.9,26.9h234.8
		l54.1,54.1v67.8l43,43v49.3l41.6,41.6h96.5L744.2,782.7z M725.8,758.1l-2.7-2.7l-37.3,37.3h-49.5l-35.5-35.5v-41.4l-44.5-44.5
		v-42.9L529,601.2l-2.7,2.7l26.1,26.1v42.9l44.5,44.5v41.4l37.7,37.7h52.6L725.8,758.1z M824.7,733.4h-47.3L662,618l-2.7,2.7
		l116.4,116.4h48.9V733.4z M806.4,752.7h-39.7L724.1,710h-51.8l-32.8,32.8l2.7,2.7l31.7-31.7h48.7l42.6,42.6h41.2V752.7z M701,736.2
		l-2.7-2.7l-26,26h-37.1L619.6,744v-32.8l-35.9-35.9v-41.7l-13.9-13.9l-2.7,2.7l12.8,12.8v41.7l35.9,35.9v32.8l17.9,17.9h40.2
		L701,736.2z M695.2,679.6l-58.5-58.5l-2.7,2.7l58.5,58.5L695.2,679.6z M664.6,679.6l-58.5-58.5l-2.7,2.7l58.5,58.5L664.6,679.6z
		 M708.8,691.5h-73.9l-31.3-31.3l-2.7,2.7l32.4,32.4h75.5V691.5z M657.1,707.6l-2.7-2.7l-23.9,23.9l2.7,2.7L657.1,707.6z
		 M643.2,701.1l-2.7-2.7l-12.2,12.2l2.7,2.7L643.2,701.1z M388.5,863.9v-94.8l-49.9-49.9H216.8l-34.1,34.1h-81.4l-21.8-21.8H-98
		l-31,31h-99l-17.3-17.3v-24.5l22.5-22.5l-2.7-2.7l-23.6,23.6v27.6l19.5,19.5h102.1l31-31H78L99.8,757h84.5l34.1-34.1H337l47.7,47.7
		v91.7l-38.9,38.9H167.1l-28.9-28.9H36.4l-81.2-81.2h-134.7l-45.4,45.4h-70.6l-20.4-20.4v-60.8l79.1-79.1h19.2l39,39H65.3l45.9-45.9
		h52.1l47.7-47.7h208.8l37.4-37.4l-2.7-2.7l-36.3,36.2H209.5l-47.7,47.7h-52.1l-45.9,45.9H-177l-39-39h-22.3l-81.3,81.3v63.9
		l22.6,22.6h73.7l45.4-45.4h131.6l81.2,81.2h101.8l28.9,28.9h181.8L388.5,863.9z M367.4,775.3l-39-39h-98.5l-32.4,32.4H91.5l-20-20
		H-87.8v3.8H69.9l20,20H199l32.4-32.4h95.4l36.8,36.8v74.3h3.8V775.3z M351.7,843.5V787l-22.2-22.2h-41.6l-13.5-13.5h-35.8
		L202.9,787h-114l-13.1-13.1H47.4l-17.9,17.9H-1.6L-29.4,764h-58.4v3.8H-31l27.9,27.9h34.2L49,777.7h25.3l13.1,13.1h117.1l35.7-35.7
		h32.7l13.5,13.5h41.6l20,20V842l-34.2,34.2h-77.5l-26.6-26.6v-31.2l46.1-46.1h17.2l25.4,25.4h30.4V794h-28.8l-25.4-25.4h-20.3
		l-48.3,48.3v34.4l28.8,28.8h80.6L351.7,843.5z M85.7,626h64.1l37.2-37.2l-2.7-2.7l-36.1,36.1H84.2L47.3,659h-175.9l-33.2-33.2
		h-41.5l-80.2-80.2h-38l-17.1,17.1h-146.1v3.8H-337l17.1-17.1h34.9l80.2,80.2h41.5l33.2,33.2h179L85.7,626z M1033,933.4l-2.7-2.7
		l-45.2,45.2l2.7,2.7L1033,933.4z M966.4,972.5v-15.4l20.8-20.9h15.8l23-23l-2.7-2.7l-21.9,21.9h-15.8l-23.1,23.1V971l-26.4,26.4
		l2.7,2.7L966.4,972.5z M994.9,946.3l-2.7-2.7l-17.7,17.7l2.7,2.7L994.9,946.3z M772,949.7l18.4-18.4v-53.3l32.5-32.5h38.3l44,44
		h53.4l26.1-26.1h23.8l29.5,29.5l2.7-2.7l-30.6-30.6h-26.9L957,885.8h-50.3l-44-44h-41.4l-34.7,34.7v53.3l-18.4,18.4V990h3.8V949.7z
		 M930.8,946.3v-30.4l-13.9-13.9h-24.8l-43-43l-2.7,2.7l44.1,44.1h24.8l11.6,11.6v27.2l-37,37l2.7,2.7L930.8,946.3z M1003.8,892.9
		l-2.7-2.7l-24,24h-28.6v3.8h30.1L1003.8,892.9z M803.8,934.6V882l17.2-17.2h12.1l27.5,27.5v36l13.8,13.8h24.7l12.8-12.8l-2.7-2.7
		l-11.7,11.7h-21.6l-11.6-11.6v-36L834.8,861h-15.3l-19.4,19.4v52.6l-21.6,21.6l2.7,2.7L803.8,934.6z M848.9,905.2l-20.8-20.8h-14.1
		v3.8h12.5l19.7,19.7L848.9,905.2z M843.8,885.1l-15.5-15.5l-2.7,2.7l15.5,15.5L843.8,885.1z M863.2,943.9l-2.7-2.7l-22.6,22.6
		l2.7,2.7L863.2,943.9z M847.5,943.9l-2.7-2.7l-22.6,22.6l2.7,2.7L847.5,943.9z M831.8,943.9l-2.7-2.7l-22.6,22.6l2.7,2.7
		L831.8,943.9z M816.1,943.9l-2.7-2.7l-22.6,22.6l2.7,2.7L816.1,943.9z M405.1-6.4l-2.7-2.7L287.3,106.1H124.7v3.8h164.2L405.1-6.4z
		 M54.7,89.6h118v-3.8H53.2l-22.4,22.4h-145.9v3.8H32.3L54.7,89.6z M-300.4,258V164l75.7-75.7h158l52.5-52.5l-2.7-2.7l-51.4,51.4
		h-158l-77.9,77.9v93.9l-71.3,71.3l2.7,2.7L-300.4,258z M-352.3,143.5h-3.8v113.7h3.8V143.5z M-324.9,153.7h-3.8V232h3.8V153.7z
		 M473.6,97.4l-2.7-2.7L411.7,154h-64.4l-30.2-30.2l-2.7,2.7l31.3,31.3h67.5L473.6,97.4z M295.9,125.6h-84.5v3.8h84.5V125.6z
		 M400.2,118.3l-35.5-35.5l-2.7,2.7l35.5,35.5L400.2,118.3z M363.9,127.6l-27-27l-2.7,2.7l27,27L363.9,127.6z M461.2,143l-2.7-2.7
		l-34.4,34.4h-59v3.8h60.5L461.2,143z M617.2,337.1L580,299.9h-76v3.8h74.5l36.1,36.1L617.2,337.1z M496.2,319.4h75.5l12.5,12.5
		l2.7-2.7l-13.6-13.6h-78.6L462.2,348l2.7,2.7L496.2,319.4z M603.2,361.5H672v-3.8h-70.4l-18.4,18.4H492v3.8h92.8L603.2,361.5z
		 M576.7,353.1l-25-25l-2.7,2.7l25,25L576.7,353.1z M556.3,353.1l-25-25l-2.7,2.7l25,25L556.3,353.1z M535.9,353.1l-25-25l-2.7,2.7
		l25,25L535.9,353.1z M903.4,797.1h-51.7v3.8h51.7V797.1z M903.2,782.6h-51.7v3.8h51.7V782.6z M903,768h-51.7v3.8H903V768z
		 M285.1,859.6L248.6,823l-2.7,2.7l36.6,36.6L285.1,859.6z M295.3,849.1l-36.6-36.6l-2.7,2.7l36.6,36.6L295.3,849.1z M305.5,838.7
		l-36.6-36.6l-2.7,2.7l36.6,36.6L305.5,838.7z M687.3,236.1v-50.3l27-27h90v-3.8h-91.5l-29.2,29.2v50.3L653,265.1h-36.3L586,234.5
		h-62v3.8h60.4l30.6,30.6h39.5L687.3,236.1z M729.2,248.1v-28.1l24.8-24.8h50.2v-3.8h-51.8l-27,27v28.1l-50.8,50.8h-39.9v3.8h41.4
		L729.2,248.1z M738.9,171.8l-2.7-2.7l-33.2,33.2l2.7,2.7L738.9,171.8z M673.3,213.3l-2.7-2.7l-25.5,25.5h-36.9v3.8h38.5
		L673.3,213.3z M871.4,123.1v-35h-3.8v33.5l-25.1,25.1l2.7,2.7L871.4,123.1z M580.2,162.7h66.9l31.9-31.9H801l31.2-31.2h18.4v-3.8
		h-19.9L799.5,127H677.4l-31.9,31.9h-66.9L477.4,260.1l2.7,2.7L580.2,162.7z M318.9,956.7h-174l-36.9-36.9H16.3l-84.3-84.3h-97.7
		l-36.5,36.5h-96.9l-59.3-59.3h-49.1l-96.9,96.9l2.7,2.7l95.8-95.8h46l59.3,59.3h100l36.5-36.5h94.6l84.3,84.3h91.7l36.9,36.9h175.6
		V956.7z M-398.2,972.2v-50.3l30.6-30.6h36.3l30.6,30.6h62v-3.8h-60.4l-30.6-30.6h-39.5l-32.8,32.8v50.3l-27,27h-90v3.8h91.5
		L-398.2,972.2z M-440.1,937.9v-28.1l50.8-50.8h39.8v-3.8h-41.4l-53,53v28.1l-24.8,24.8h-50.2v3.8h51.8L-440.1,937.9z
		 M-514.1,1029.4H-392l31.9-31.9h66.9L-192,896.3l-2.7-2.7l-100.1,100.1h-66.9l-31.9,31.9h-122.1l-31.2,31.2h-18.3v3.8h19.9
		L-514.1,1029.4z M648.3,197l-15.7-15.7H583l-29.3,29.3l2.7,2.7l28.2-28.2h46.5l13.5,13.5v24h3.8V197z M625.2,216.9l-17-17h-22.6
		v3.8h21.1l15.8,15.8L625.2,216.9z M637.2,992.6L496.8,852.2V751.2l-81.1-81.1H229.9L197,703h-72v3.8h73.6l32.9-32.9h182.6
		l78.9,78.9v100.9l141.6,141.6L637.2,992.6z M496.3,648.8H326.9v3.8h169.4V648.8z M287.9,648.8h-64.5v3.8h64.5V648.8z M391.6,911.1
		l49.7-49.7V759.6l-69.8-69.8l-2.7,2.7l68.7,68.7v98.6l-49.7,49.7v117.9h3.8V911.1z M472.3,770.2h-3.8V932h3.8V770.2z M421.9,945
		l35.9-35.9v-28.8H454v27.3l-35.9,35.9v67.6h3.8V945z M593.1,998.8l-85.1-85.1l-2.7,2.7l85.1,85.1L593.1,998.8z M556.9,993.2l-43-43
		h-66.7v3.8h65.2l41.9,41.9L556.9,993.2z M691.9,917.5v-37.7l62.7-62.7l-2.7-2.7l-63.8,63.8v37.7l-19.4,19.4h-33.9l-71.6-71.6v-31.6
		L535.1,804v-69.5l-54.3-54.3l-2.7,2.7l53.2,53.2v69.5l28.1,28.1v31.6l73.8,73.8h37L691.9,917.5z M662.6,899.3v-52.2h-3.8v50.6
		l-14.2,14.2l2.7,2.7L662.6,899.3z M631,874.9l-37-37l-2.7,2.7l37,37L631,874.9z M976.3,805.3h103.4v-3.8h-105l-47.6,47.6l2.7,2.7
		L976.3,805.3z M-120.5,929.5v-31.8l-23-23v-17l7.1-7.1h47.8l35.4,35.4v25.9l-28.6,28.6h-25v3.8h26.5l30.8-30.8v-29L-87,846.9h-50.9
		l-9.3,9.3v20.1l23,23V928l-14.6,14.6h-38.9v3.8h40.5L-120.5,929.5z M-69.9,903.3v-20.9l-19.7-19.7h-33.2v3.8h31.7l17.5,17.5v17.8
		l-15.5,15.5l2.7,2.7L-69.9,903.3z M-101.9,880.3h-3.8v26.2h3.8V880.3z M149.3,998.1l-53-53H56.1l-13.8,13.8h-75.7v3.8h77.3
		l13.8-13.8h37.1l51.9,51.9L149.3,998.1z M-26.5,923h16.7l14.6,14.6h70v-3.8H6.3l-14.6-14.6h-19.8l-84.7,84.7l2.7,2.7L-26.5,923z
		 M356.1,952L324,919.9H158.2l-25.9-25.9H27l-84-84h-109.6v3.8h108l84,84h105.3l25.9,25.9h165.8l29.9,29.9v45.9h3.8V952z
		 M-195.4,837.5l-2.7-2.7l-19.7,19.7h-75.9v3.8h77.5L-195.4,837.5z M977.4,738.2l8.7-8.7h88.9v-3.8h-90.4l-10.9,10.9v20.5h3.8V738.2
		z M986.3,984.7c3.6,0,6.6-2.9,6.6-6.6c0-3.6-2.9-6.6-6.6-6.6s-6.6,2.9-6.6,6.6C979.7,981.7,982.6,984.7,986.3,984.7z M1031.8,938.4
		c3.6,0,6.6-2.9,6.6-6.6c0-3.6-2.9-6.6-6.6-6.6s-6.6,2.9-6.6,6.6C1025.2,935.5,1028.2,938.4,1031.8,938.4z M1024.5,918.7
		c3.6,0,6.6-2.9,6.6-6.6c0-3.6-2.9-6.6-6.6-6.6s-6.6,2.9-6.6,6.6C1018,915.8,1020.9,918.7,1024.5,918.7z M993.9,951.5
		c3.6,0,6.6-2.9,6.6-6.6c0-3.6-2.9-6.6-6.6-6.6c-3.6,0-6.6,2.9-6.6,6.6C987.4,948.6,990.3,951.5,993.9,951.5z M975.7,969
		c3.6,0,6.6-2.9,6.6-6.6c0-3.6-2.9-6.6-6.6-6.6c-3.6,0-6.6,2.9-6.6,6.6C969.1,966.1,972.1,969,975.7,969z M937.4,1005.1
		c3.6,0,6.6-2.9,6.6-6.6s-2.9-6.6-6.6-6.6s-6.6,2.9-6.6,6.6S933.8,1005.1,937.4,1005.1z M890.8,989.4c3.6,0,6.6-2.9,6.6-6.6
		c0-3.6-2.9-6.6-6.6-6.6c-3.6,0-6.6,2.9-6.6,6.6C884.2,986.5,887.2,989.4,890.8,989.4z M909.7,934.8c3.6,0,6.6-2.9,6.6-6.6
		c0-3.6-2.9-6.6-6.6-6.6c-3.6,0-6.6,2.9-6.6,6.6C903.2,931.8,906.1,934.8,909.7,934.8z M947.3,921.6c3.6,0,6.6-2.9,6.6-6.6
		s-2.9-6.6-6.6-6.6c-3.6,0-6.6,2.9-6.6,6.6S943.6,921.6,947.3,921.6z M1000.5,897.6c3.6,0,6.6-2.9,6.6-6.6c0-3.6-2.9-6.6-6.6-6.6
		c-3.6,0-6.6,2.9-6.6,6.6C993.9,894.7,996.8,897.6,1000.5,897.6z M1039.5,897.6c3.6,0,6.6-2.9,6.6-6.6c0-3.6-2.9-6.6-6.6-6.6
		s-6.6,2.9-6.6,6.6C1032.9,894.7,1035.8,897.6,1039.5,897.6z M928.7,856.8c3.6,0,6.6-2.9,6.6-6.6c0-3.6-2.9-6.6-6.6-6.6
		c-3.6,0-6.6,2.9-6.6,6.6C922.1,853.8,925.1,856.8,928.7,856.8z M859.8,949c3.6,0,6.6-2.9,6.6-6.6s-2.9-6.6-6.6-6.6
		c-3.6,0-6.6,2.9-6.6,6.6S856.2,949,859.8,949z M839,971.6c3.6,0,6.6-2.9,6.6-6.6c0-3.6-2.9-6.6-6.6-6.6c-3.6,0-6.6,2.9-6.6,6.6
		C832.5,968.6,835.4,971.6,839,971.6z M845.6,949.3c3.6,0,6.6-2.9,6.6-6.6c0-3.6-2.9-6.6-6.6-6.6c-3.6,0-6.6,2.9-6.6,6.6
		C839,946.4,842,949.3,845.6,949.3z M824.1,971.6c3.6,0,6.6-2.9,6.6-6.6c0-3.6-2.9-6.6-6.6-6.6c-3.6,0-6.6,2.9-6.6,6.6
		C817.5,968.6,820.5,971.6,824.1,971.6z M808.1,971.6c3.6,0,6.6-2.9,6.6-6.6c0-3.6-2.9-6.6-6.6-6.6c-3.6,0-6.6,2.9-6.6,6.6
		C801.5,968.6,804.4,971.6,808.1,971.6z M792,971.6c3.6,0,6.6-2.9,6.6-6.6c0-3.6-2.9-6.6-6.6-6.6c-3.6,0-6.6,2.9-6.6,6.6
		C785.5,968.6,788.4,971.6,792,971.6z M830.7,949c3.6,0,6.6-2.9,6.6-6.6s-2.9-6.6-6.6-6.6s-6.6,2.9-6.6,6.6S827,949,830.7,949z
		 M814.6,949c3.6,0,6.6-2.9,6.6-6.6s-2.9-6.6-6.6-6.6c-3.6,0-6.6,2.9-6.6,6.6S811,949,814.6,949z M813.9,892.9
		c3.6,0,6.6-2.9,6.6-6.6s-2.9-6.6-6.6-6.6c-3.6,0-6.6,2.9-6.6,6.6S810.3,892.9,813.9,892.9z M847.1,913.3c3.6,0,6.6-2.9,6.6-6.6
		c0-3.6-2.9-6.6-6.6-6.6c-3.6,0-6.6,2.9-6.6,6.6C840.5,910.3,843.4,913.3,847.1,913.3z M842.3,893.6c3.6,0,6.6-2.9,6.6-6.6
		c0-3.6-2.9-6.6-6.6-6.6c-3.6,0-6.6,2.9-6.6,6.6C835.8,890.6,838.7,893.6,842.3,893.6z M827,877.9c3.6,0,6.6-2.9,6.6-6.6
		c0-3.6-2.9-6.6-6.6-6.6s-6.6,2.9-6.6,6.6C820.5,875,823.4,877.9,827,877.9z M847.1,867c3.6,0,6.6-2.9,6.6-6.6
		c0-3.6-2.9-6.6-6.6-6.6c-3.6,0-6.6,2.9-6.6,6.6C840.5,864,843.4,867,847.1,867z M770.2,996c3.6,0,6.6-2.9,6.6-6.6s-2.9-6.6-6.6-6.6
		c-3.6,0-6.6,2.9-6.6,6.6S766.6,996,770.2,996z M779.6,962.5c3.6,0,6.6-2.9,6.6-6.6c0-3.6-2.9-6.6-6.6-6.6s-6.6,2.9-6.6,6.6
		C773.1,959.5,776,962.5,779.6,962.5z M724.3,996c3.6,0,6.6-2.9,6.6-6.6s-2.9-6.6-6.6-6.6c-3.6,0-6.6,2.9-6.6,6.6
		S720.6,996,724.3,996z M753.4,822.5c3.6,0,6.6-2.9,6.6-6.6c0-3.6-2.9-6.6-6.6-6.6c-3.6,0-6.6,2.9-6.6,6.6
		C746.9,819.6,749.8,822.5,753.4,822.5z M646.6,919.8c3.6,0,6.6-2.9,6.6-6.6s-2.9-6.6-6.6-6.6c-3.6,0-6.6,2.9-6.6,6.6
		S643,919.8,646.6,919.8z M661.6,853.5c3.6,0,6.6-2.9,6.6-6.6c0-3.6-2.9-6.6-6.6-6.6c-3.6,0-6.6,2.9-6.6,6.6
		C655,850.6,658,853.5,661.6,853.5z M629.9,883c3.6,0,6.6-2.9,6.6-6.6c0-3.6-2.9-6.6-6.6-6.6s-6.6,2.9-6.6,6.6
		C623.3,880.1,626.3,883,629.9,883z M593.8,846.9c3.6,0,6.6-2.9,6.6-6.6c0-3.6-2.9-6.6-6.6-6.6s-6.6,2.9-6.6,6.6
		C587.2,844,590.2,846.9,593.8,846.9z M506.7,921.6c3.6,0,6.6-2.9,6.6-6.6s-2.9-6.6-6.6-6.6s-6.6,2.9-6.6,6.6
		S503.1,921.6,506.7,921.6z M470.3,938.4c3.6,0,6.6-2.9,6.6-6.6c0-3.6-2.9-6.6-6.6-6.6c-3.6,0-6.6,2.9-6.6,6.6
		C463.7,935.5,466.7,938.4,470.3,938.4z M447,958.4c3.6,0,6.6-2.9,6.6-6.6c0-3.6-2.9-6.6-6.6-6.6s-6.6,2.9-6.6,6.6
		C440.4,955.5,443.3,958.4,447,958.4z M420,1017.5c3.6,0,6.6-2.9,6.6-6.6s-2.9-6.6-6.6-6.6s-6.6,2.9-6.6,6.6
		S416.4,1017.5,420,1017.5z M389.7,1033.9c3.6,0,6.6-2.9,6.6-6.6c0-3.6-2.9-6.6-6.6-6.6c-3.6,0-6.6,2.9-6.6,6.6
		C383.2,1030.9,386.1,1033.9,389.7,1033.9z M354.4,1004.4c3.6,0,6.6-2.9,6.6-6.6c0-3.6-2.9-6.6-6.6-6.6c-3.6,0-6.6,2.9-6.6,6.6
		C347.8,1001.4,350.8,1004.4,354.4,1004.4z M318.7,964.3c3.6,0,6.6-2.9,6.6-6.6c0-3.6-2.9-6.6-6.6-6.6s-6.6,2.9-6.6,6.6
		C312.1,961.3,315.1,964.3,318.7,964.3z M283.7,867.4c3.6,0,6.6-2.9,6.6-6.6s-2.9-6.6-6.6-6.6c-3.6,0-6.6,2.9-6.6,6.6
		S280.1,867.4,283.7,867.4z M293.9,857.5c3.6,0,6.6-2.9,6.6-6.6c0-3.6-2.9-6.6-6.6-6.6s-6.6,2.9-6.6,6.6
		C287.4,854.6,290.3,857.5,293.9,857.5z M304.1,847.7c3.6,0,6.6-2.9,6.6-6.6s-2.9-6.6-6.6-6.6s-6.6,2.9-6.6,6.6
		S300.5,847.7,304.1,847.7z M247.3,830.9c3.6,0,6.6-2.9,6.6-6.6c0-3.6-2.9-6.6-6.6-6.6c-3.6,0-6.6,2.9-6.6,6.6
		C240.7,828,243.6,830.9,247.3,830.9z M74.5,942.4c3.6,0,6.6-2.9,6.6-6.6c0-3.6-2.9-6.6-6.6-6.6s-6.6,2.9-6.6,6.6
		C68,939.5,70.9,942.4,74.5,942.4z M148.2,1005.8c3.6,0,6.6-2.9,6.6-6.6c0-3.6-2.9-6.6-6.6-6.6c-3.6,0-6.6,2.9-6.6,6.6
		C141.6,1002.9,144.5,1005.8,148.2,1005.8z M-33.7,967.2c3.6,0,6.6-2.9,6.6-6.6c0-3.6-2.9-6.6-6.6-6.6s-6.6,2.9-6.6,6.6
		C-40.2,964.3-37.3,967.2-33.7,967.2z M-106.6,949c3.6,0,6.6-2.9,6.6-6.6s-2.9-6.6-6.6-6.6s-6.6,2.9-6.6,6.6S-110.2,949-106.6,949z
		 M-111.7,1011.6c3.6,0,6.6-2.9,6.6-6.6c0-3.6-2.9-6.6-6.6-6.6s-6.6,2.9-6.6,6.6C-118.2,1008.7-115.3,1011.6-111.7,1011.6z
		 M-177.6,950.1c3.6,0,6.6-2.9,6.6-6.6c0-3.6-2.9-6.6-6.6-6.6c-3.6,0-6.6,2.9-6.6,6.6C-184.2,947.1-181.2,950.1-177.6,950.1z
		 M-193.3,901.6c3.6,0,6.6-2.9,6.6-6.6s-2.9-6.6-6.6-6.6c-3.6,0-6.6,2.9-6.6,6.6S-196.9,901.6-193.3,901.6z M-239.9,926
		c3.6,0,6.6-2.9,6.6-6.6c0-3.6-2.9-6.6-6.6-6.6c-3.6,0-6.6,2.9-6.6,6.6C-246.5,923.1-243.5,926-239.9,926z M-349.6,863.7
		c3.6,0,6.6-2.9,6.6-6.6s-2.9-6.6-6.6-6.6c-3.6,0-6.6,2.9-6.6,6.6S-353.2,863.7-349.6,863.7z M-372.9,729.6c3.6,0,6.6-2.9,6.6-6.6
		s-2.9-6.6-6.6-6.6c-3.6,0-6.6,2.9-6.6,6.6S-376.5,729.6-372.9,729.6z M-386.6,715.2c3.6,0,6.6-2.9,6.6-6.6s-2.9-6.6-6.6-6.6
		c-3.6,0-6.6,2.9-6.6,6.6S-390.2,715.2-386.6,715.2z M-401.9,700.3c3.6,0,6.6-2.9,6.6-6.6c0-3.6-2.9-6.6-6.6-6.6
		c-3.6,0-6.6,2.9-6.6,6.6C-408.5,697.3-405.5,700.3-401.9,700.3z M-308.1,663.7c3.6,0,6.6-2.9,6.6-6.6c0-3.6-2.9-6.6-6.6-6.6
		c-3.6,0-6.6,2.9-6.6,6.6C-314.6,660.7-311.7,663.7-308.1,663.7z M-321.7,649.3c3.6,0,6.6-2.9,6.6-6.6c0-3.6-2.9-6.6-6.6-6.6
		c-3.6,0-6.6,2.9-6.6,6.6C-328.3,646.3-325.4,649.3-321.7,649.3z M-337,634.3c3.6,0,6.6-2.9,6.6-6.6c0-3.6-2.9-6.6-6.6-6.6
		c-3.6,0-6.6,2.9-6.6,6.6C-343.6,631.4-340.7,634.3-337,634.3z M-446.9,599.5c3.6,0,6.6-2.9,6.6-6.6s-2.9-6.6-6.6-6.6
		s-6.6,2.9-6.6,6.6S-450.5,599.5-446.9,599.5z M-484.8,571.1c3.6,0,6.6-2.9,6.6-6.6c0-3.6-2.9-6.6-6.6-6.6s-6.6,2.9-6.6,6.6
		C-491.4,568.2-488.4,571.1-484.8,571.1z M-223.5,703.7c3.6,0,6.6-2.9,6.6-6.6c0-3.6-2.9-6.6-6.6-6.6c-3.6,0-6.6,2.9-6.6,6.6
		C-230.1,700.8-227.1,703.7-223.5,703.7z M-166.3,818.5c3.6,0,6.6-2.9,6.6-6.6s-2.9-6.6-6.6-6.6c-3.6,0-6.6,2.9-6.6,6.6
		S-169.9,818.5-166.3,818.5z M-87.6,773.7c3.6,0,6.6-2.9,6.6-6.6c0-3.6-2.9-6.6-6.6-6.6s-6.6,2.9-6.6,6.6
		C-94.2,770.8-91.2,773.7-87.6,773.7z M-88,756.9c3.6,0,6.6-2.9,6.6-6.6s-2.9-6.6-6.6-6.6s-6.6,2.9-6.6,6.6S-91.6,756.9-88,756.9z
		 M125.2,711.4c3.6,0,6.6-2.9,6.6-6.6c0-3.6-2.9-6.6-6.6-6.6s-6.6,2.9-6.6,6.6C118.6,708.5,121.6,711.4,125.2,711.4z M223.2,657.1
		c3.6,0,6.6-2.9,6.6-6.6c0-3.6-2.9-6.6-6.6-6.6c-3.6,0-6.6,2.9-6.6,6.6C216.7,654.2,219.6,657.1,223.2,657.1z M288.1,657.1
		c3.6,0,6.6-2.9,6.6-6.6c0-3.6-2.9-6.6-6.6-6.6c-3.6,0-6.6,2.9-6.6,6.6C281.5,654.2,284.5,657.1,288.1,657.1z M327.1,657.1
		c3.6,0,6.6-2.9,6.6-6.6c0-3.6-2.9-6.6-6.6-6.6c-3.6,0-6.6,2.9-6.6,6.6C320.5,654.2,323.4,657.1,327.1,657.1z M495.1,657.5
		c3.6,0,6.6-2.9,6.6-6.6s-2.9-6.6-6.6-6.6s-6.6,2.9-6.6,6.6S491.4,657.5,495.1,657.5z M479.4,688.1c3.6,0,6.6-2.9,6.6-6.6
		s-2.9-6.6-6.6-6.6s-6.6,2.9-6.6,6.6S475.8,688.1,479.4,688.1z M370.1,697.9c3.6,0,6.6-2.9,6.6-6.6c0-3.6-2.9-6.6-6.6-6.6
		s-6.6,2.9-6.6,6.6C363.5,695,366.4,697.9,370.1,697.9z M456.1,589.3c3.6,0,6.6-2.9,6.6-6.6c0-3.6-2.9-6.6-6.6-6.6s-6.6,2.9-6.6,6.6
		C449.5,586.4,452.4,589.3,456.1,589.3z M404.7,601c3.6,0,6.6-2.9,6.6-6.6c0-3.6-2.9-6.6-6.6-6.6s-6.6,2.9-6.6,6.6
		C398.1,598,401.1,601,404.7,601z M185.7,594.4c3.6,0,6.6-2.9,6.6-6.6c0-3.6-2.9-6.6-6.6-6.6c-3.6,0-6.6,2.9-6.6,6.6
		C179.1,591.5,182.1,594.4,185.7,594.4z M160.9,550.7c3.6,0,6.6-2.9,6.6-6.6s-2.9-6.6-6.6-6.6c-3.6,0-6.6,2.9-6.6,6.6
		S157.3,550.7,160.9,550.7z M230.5,506.6c3.6,0,6.6-2.9,6.6-6.6c0-3.6-2.9-6.6-6.6-6.6c-3.6,0-6.6,2.9-6.6,6.6
		C223.9,503.7,226.9,506.6,230.5,506.6z M160.9,475.3c3.6,0,6.6-2.9,6.6-6.6c0-3.6-2.9-6.6-6.6-6.6c-3.6,0-6.6,2.9-6.6,6.6
		C154.4,472.3,157.3,475.3,160.9,475.3z M161.3,456.7c3.6,0,6.6-2.9,6.6-6.6s-2.9-6.6-6.6-6.6c-3.6,0-6.6,2.9-6.6,6.6
		S157.7,456.7,161.3,456.7z M161.3,370c3.6,0,6.6-2.9,6.6-6.6s-2.9-6.6-6.6-6.6c-3.6,0-6.6,2.9-6.6,6.6S157.7,370,161.3,370z
		 M252.7,383.4c3.6,0,6.6-2.9,6.6-6.6s-2.9-6.6-6.6-6.6c-3.6,0-6.6,2.9-6.6,6.6S249.1,383.4,252.7,383.4z M276.1,511.3
		c3.6,0,6.6-2.9,6.6-6.6c0-3.6-2.9-6.6-6.6-6.6s-6.6,2.9-6.6,6.6C269.5,508.4,272.4,511.3,276.1,511.3z M319.8,502.2
		c3.6,0,6.6-2.9,6.6-6.6c0-3.6-2.9-6.6-6.6-6.6c-3.6,0-6.6,2.9-6.6,6.6C313.2,499.3,316.2,502.2,319.8,502.2z M333.3,502.2
		c3.6,0,6.6-2.9,6.6-6.6c0-3.6-2.9-6.6-6.6-6.6c-3.6,0-6.6,2.9-6.6,6.6C326.7,499.3,329.6,502.2,333.3,502.2z M347.1,502.2
		c3.6,0,6.6-2.9,6.6-6.6c0-3.6-2.9-6.6-6.6-6.6c-3.6,0-6.6,2.9-6.6,6.6C340.6,499.3,343.5,502.2,347.1,502.2z M319.8,452.3
		c3.6,0,6.6-2.9,6.6-6.6c0-3.6-2.9-6.6-6.6-6.6c-3.6,0-6.6,2.9-6.6,6.6C313.2,449.4,316.2,452.3,319.8,452.3z M333.3,452.3
		c3.6,0,6.6-2.9,6.6-6.6c0-3.6-2.9-6.6-6.6-6.6c-3.6,0-6.6,2.9-6.6,6.6C326.7,449.4,329.6,452.3,333.3,452.3z M347.1,452.3
		c3.6,0,6.6-2.9,6.6-6.6c0-3.6-2.9-6.6-6.6-6.6c-3.6,0-6.6,2.9-6.6,6.6C340.6,449.4,343.5,452.3,347.1,452.3z M-293.5,863
		c3.6,0,6.6-2.9,6.6-6.6c0-3.6-2.9-6.6-6.6-6.6c-3.6,0-6.6,2.9-6.6,6.6C-300,860-297.1,863-293.5,863z M-197.7,843.7
		c3.6,0,6.6-2.9,6.6-6.6s-2.9-6.6-6.6-6.6c-3.6,0-6.6,2.9-6.6,6.6S-201.3,843.7-197.7,843.7z M-87.6,924.9c3.6,0,6.6-2.9,6.6-6.6
		c0-3.6-2.9-6.6-6.6-6.6s-6.6,2.9-6.6,6.6C-94.2,922-91.2,924.9-87.6,924.9z M-104,912.9c3.6,0,6.6-2.9,6.6-6.6
		c0-3.6-2.9-6.6-6.6-6.6s-6.6,2.9-6.6,6.6C-110.6,910-107.6,912.9-104,912.9z M-104,886.7c3.6,0,6.6-2.9,6.6-6.6
		c0-3.6-2.9-6.6-6.6-6.6s-6.6,2.9-6.6,6.6C-110.6,883.7-107.6,886.7-104,886.7z M-123,871c3.6,0,6.6-2.9,6.6-6.6s-2.9-6.6-6.6-6.6
		s-6.6,2.9-6.6,6.6S-126.6,871-123,871z M257.5,821.1c3.6,0,6.6-2.9,6.6-6.6c0-3.6-2.9-6.6-6.6-6.6c-3.6,0-6.6,2.9-6.6,6.6
		C250.9,818.1,253.9,821.1,257.5,821.1z M267.7,811.2c3.6,0,6.6-2.9,6.6-6.6s-2.9-6.6-6.6-6.6s-6.6,2.9-6.6,6.6
		S264.1,811.2,267.7,811.2z M365.7,856.4c3.6,0,6.6-2.9,6.6-6.6s-2.9-6.6-6.6-6.6s-6.6,2.9-6.6,6.6S362.1,856.4,365.7,856.4z
		 M328.5,802.1c3.6,0,6.6-2.9,6.6-6.6s-2.9-6.6-6.6-6.6s-6.6,2.9-6.6,6.6S324.9,802.1,328.5,802.1z M555.5,1001.1
		c3.6,0,6.6-2.9,6.6-6.6s-2.9-6.6-6.6-6.6s-6.6,2.9-6.6,6.6S551.9,1001.1,555.5,1001.1z M592,1006.5c3.6,0,6.6-2.9,6.6-6.6
		s-2.9-6.6-6.6-6.6s-6.6,2.9-6.6,6.6S588.4,1006.5,592,1006.5z M636.4,1000.4c3.6,0,6.6-2.9,6.6-6.6c0-3.6-2.9-6.6-6.6-6.6
		c-3.6,0-6.6,2.9-6.6,6.6C629.9,997.4,632.8,1000.4,636.4,1000.4z M456.1,888.1c3.6,0,6.6-2.9,6.6-6.6c0-3.6-2.9-6.6-6.6-6.6
		s-6.6,2.9-6.6,6.6C449.5,885.2,452.4,888.1,456.1,888.1z M470.3,776.3c3.6,0,6.6-2.9,6.6-6.6c0-3.6-2.9-6.6-6.6-6.6
		c-3.6,0-6.6,2.9-6.6,6.6C463.7,773.3,466.7,776.3,470.3,776.3z M851.4,805.4c3.6,0,6.6-2.9,6.6-6.6c0-3.6-2.9-6.6-6.6-6.6
		c-3.6,0-6.6,2.9-6.6,6.6C844.9,802.5,847.8,805.4,851.4,805.4z M851.4,790.8c3.6,0,6.6-2.9,6.6-6.6c0-3.6-2.9-6.6-6.6-6.6
		c-3.6,0-6.6,2.9-6.6,6.6C844.9,787.9,847.8,790.8,851.4,790.8z M851.1,776.3c3.6,0,6.6-2.9,6.6-6.6c0-3.6-2.9-6.6-6.6-6.6
		c-3.6,0-6.6,2.9-6.6,6.6C844.5,773.3,847.4,776.3,851.1,776.3z M903.2,775.5c3.6,0,6.6-2.9,6.6-6.6c0-3.6-2.9-6.6-6.6-6.6
		s-6.6,2.9-6.6,6.6C896.6,772.6,899.6,775.5,903.2,775.5z M913.7,752.6c3.6,0,6.6-2.9,6.6-6.6c0-3.6-2.9-6.6-6.6-6.6
		s-6.6,2.9-6.6,6.6C907.2,749.6,910.1,752.6,913.7,752.6z M975.7,763.1c3.6,0,6.6-2.9,6.6-6.6c0-3.6-2.9-6.6-6.6-6.6
		c-3.6,0-6.6,2.9-6.6,6.6C969.1,760.2,972.1,763.1,975.7,763.1z M823.7,741.6c3.6,0,6.6-2.9,6.6-6.6c0-3.6-2.9-6.6-6.6-6.6
		c-3.6,0-6.6,2.9-6.6,6.6C817.2,738.7,820.1,741.6,823.7,741.6z M805.2,760.9c3.6,0,6.6-2.9,6.6-6.6c0-3.6-2.9-6.6-6.6-6.6
		s-6.6,2.9-6.6,6.6C798.6,758,801.5,760.9,805.2,760.9z M723.5,763.1c3.6,0,6.6-2.9,6.6-6.6c0-3.6-2.9-6.6-6.6-6.6s-6.6,2.9-6.6,6.6
		C717,760.2,719.9,763.1,723.5,763.1z M698.4,741.6c3.6,0,6.6-2.9,6.6-6.6c0-3.6-2.9-6.6-6.6-6.6s-6.6,2.9-6.6,6.6
		C691.8,738.7,694.8,741.6,698.4,741.6z M709,699.7c3.6,0,6.6-2.9,6.6-6.6c0-3.6-2.9-6.6-6.6-6.6s-6.6,2.9-6.6,6.6
		C702.4,696.8,705.3,699.7,709,699.7z M693.7,687.3c3.6,0,6.6-2.9,6.6-6.6c0-3.6-2.9-6.6-6.6-6.6c-3.6,0-6.6,2.9-6.6,6.6
		C687.1,684.4,690,687.3,693.7,687.3z M661.6,687.3c3.6,0,6.6-2.9,6.6-6.6c0-3.6-2.9-6.6-6.6-6.6c-3.6,0-6.6,2.9-6.6,6.6
		C655,684.4,658,687.3,661.6,687.3z M604.7,629.4c3.6,0,6.6-2.9,6.6-6.6c0-3.6-2.9-6.6-6.6-6.6c-3.6,0-6.6,2.9-6.6,6.6
		C598.2,626.5,601.1,629.4,604.7,629.4z M635.7,629.4c3.6,0,6.6-2.9,6.6-6.6c0-3.6-2.9-6.6-6.6-6.6c-3.6,0-6.6,2.9-6.6,6.6
		C629.2,626.5,632.1,629.4,635.7,629.4z M661.6,625.8c3.6,0,6.6-2.9,6.6-6.6c0-3.6-2.9-6.6-6.6-6.6c-3.6,0-6.6,2.9-6.6,6.6
		C655,622.8,658,625.8,661.6,625.8z M704.9,556.9c3.6,0,6.6-2.9,6.6-6.6c0-3.6-2.9-6.6-6.6-6.6c-3.6,0-6.6,2.9-6.6,6.6
		C698.4,554,701.3,556.9,704.9,556.9z M568.3,627.6c3.6,0,6.6-2.9,6.6-6.6c0-3.6-2.9-6.6-6.6-6.6s-6.6,2.9-6.6,6.6
		C561.7,624.6,564.7,627.6,568.3,627.6z M527.9,609c3.6,0,6.6-2.9,6.6-6.6c0-3.6-2.9-6.6-6.6-6.6c-3.6,0-6.6,2.9-6.6,6.6
		C521.3,606.1,524.2,609,527.9,609z M486.7,510.6c3.6,0,6.6-2.9,6.6-6.6c0-3.6-2.9-6.6-6.6-6.6s-6.6,2.9-6.6,6.6
		C480.1,507.7,483.1,510.6,486.7,510.6z M416.7,493.1c3.6,0,6.6-2.9,6.6-6.6c0-3.6-2.9-6.6-6.6-6.6c-3.6,0-6.6,2.9-6.6,6.6
		C410.2,490.2,413.1,493.1,416.7,493.1z M425.1,473.1c3.6,0,6.6-2.9,6.6-6.6s-2.9-6.6-6.6-6.6c-3.6,0-6.6,2.9-6.6,6.6
		S421.5,473.1,425.1,473.1z M370.1,421.3c3.6,0,6.6-2.9,6.6-6.6s-2.9-6.6-6.6-6.6s-6.6,2.9-6.6,6.6S366.4,421.3,370.1,421.3z
		 M281.5,460.3c3.6,0,6.6-2.9,6.6-6.6s-2.9-6.6-6.6-6.6s-6.6,2.9-6.6,6.6S277.9,460.3,281.5,460.3z M350.4,399.1
		c3.6,0,6.6-2.9,6.6-6.6c0-3.6-2.9-6.6-6.6-6.6s-6.6,2.9-6.6,6.6C343.8,396.2,346.8,399.1,350.4,399.1z M463.7,424.6
		c3.6,0,6.6-2.9,6.6-6.6c0-3.6-2.9-6.6-6.6-6.6c-3.6,0-6.6,2.9-6.6,6.6C457.2,421.7,460.1,424.6,463.7,424.6z M514.4,456.7
		c3.6,0,6.6-2.9,6.6-6.6s-2.9-6.6-6.6-6.6c-3.6,0-6.6,2.9-6.6,6.6S510.7,456.7,514.4,456.7z M397.4,390c3.6,0,6.6-2.9,6.6-6.6
		c0-3.6-2.9-6.6-6.6-6.6s-6.6,2.9-6.6,6.6C390.8,387.1,393.8,390,397.4,390z M478.3,475.6c3.6,0,6.6-2.9,6.6-6.6s-2.9-6.6-6.6-6.6
		c-3.6,0-6.6,2.9-6.6,6.6S474.7,475.6,478.3,475.6z M550.1,449.8c3.6,0,6.6-2.9,6.6-6.6c0-3.6-2.9-6.6-6.6-6.6s-6.6,2.9-6.6,6.6
		C543.5,446.8,546.5,449.8,550.1,449.8z M652.8,505.1c3.6,0,6.6-2.9,6.6-6.6c0-3.6-2.9-6.6-6.6-6.6c-3.6,0-6.6,2.9-6.6,6.6
		C646.3,502.2,649.2,505.1,652.8,505.1z M704.9,516.8c3.6,0,6.6-2.9,6.6-6.6s-2.9-6.6-6.6-6.6c-3.6,0-6.6,2.9-6.6,6.6
		S701.3,516.8,704.9,516.8z M622.6,533.6c3.6,0,6.6-2.9,6.6-6.6c0-3.6-2.9-6.6-6.6-6.6s-6.6,2.9-6.6,6.6
		C616,530.6,619,533.6,622.6,533.6z M850.7,521.9c3.6,0,6.6-2.9,6.6-6.6c0-3.6-2.9-6.6-6.6-6.6c-3.6,0-6.6,2.9-6.6,6.6
		C844.1,519,847.1,521.9,850.7,521.9z M869.7,541.6c3.6,0,6.6-2.9,6.6-6.6s-2.9-6.6-6.6-6.6c-3.6,0-6.6,2.9-6.6,6.6
		S866,541.6,869.7,541.6z M873.7,493.1c3.6,0,6.6-2.9,6.6-6.6c0-3.6-2.9-6.6-6.6-6.6c-3.6,0-6.6,2.9-6.6,6.6
		C867.1,490.2,870,493.1,873.7,493.1z M843.1,479.6c3.6,0,6.6-2.9,6.6-6.6c0-3.6-2.9-6.6-6.6-6.6s-6.6,2.9-6.6,6.6
		C836.5,476.7,839.4,479.6,843.1,479.6z M825.6,424.6c3.6,0,6.6-2.9,6.6-6.6c0-3.6-2.9-6.6-6.6-6.6c-3.6,0-6.6,2.9-6.6,6.6
		C819,421.7,821.9,424.6,825.6,424.6z M792,418.1c3.6,0,6.6-2.9,6.6-6.6c0-3.6-2.9-6.6-6.6-6.6c-3.6,0-6.6,2.9-6.6,6.6
		C785.5,415.1,788.4,418.1,792,418.1z M775.6,376.5c3.6,0,6.6-2.9,6.6-6.6c0-3.6-2.9-6.6-6.6-6.6c-3.6,0-6.6,2.9-6.6,6.6
		C769.1,373.6,772,376.5,775.6,376.5z M726.4,373.2c3.6,0,6.6-2.9,6.6-6.6s-2.9-6.6-6.6-6.6c-3.6,0-6.6,2.9-6.6,6.6
		S722.8,373.2,726.4,373.2z M671.8,365.9c3.6,0,6.6-2.9,6.6-6.6s-2.9-6.6-6.6-6.6c-3.6,0-6.6,2.9-6.6,6.6S668.2,365.9,671.8,365.9z
		 M493.2,384.9c3.6,0,6.6-2.9,6.6-6.6c0-3.6-2.9-6.6-6.6-6.6s-6.6,2.9-6.6,6.6C486.7,382,489.6,384.9,493.2,384.9z M463.4,355.7
		c3.6,0,6.6-2.9,6.6-6.6c0-3.6-2.9-6.6-6.6-6.6s-6.6,2.9-6.6,6.6C456.8,352.8,459.7,355.7,463.4,355.7z M478.7,267.9
		c3.6,0,6.6-2.9,6.6-6.6c0-3.6-2.9-6.6-6.6-6.6s-6.6,2.9-6.6,6.6C472.1,265,475,267.9,478.7,267.9z M504.2,308.4
		c3.6,0,6.6-2.9,6.6-6.6s-2.9-6.6-6.6-6.6s-6.6,2.9-6.6,6.6S500.5,308.4,504.2,308.4z M585.8,336.1c3.6,0,6.6-2.9,6.6-6.6
		s-2.9-6.6-6.6-6.6c-3.6,0-6.6,2.9-6.6,6.6S582.2,336.1,585.8,336.1z M614.9,343.7c3.6,0,6.6-2.9,6.6-6.6s-2.9-6.6-6.6-6.6
		c-3.6,0-6.6,2.9-6.6,6.6S611.3,343.7,614.9,343.7z M315.8,322.6c3.6,0,6.6-2.9,6.6-6.6s-2.9-6.6-6.6-6.6s-6.6,2.9-6.6,6.6
		S312.2,322.6,315.8,322.6z M365.3,183c3.6,0,6.6-2.9,6.6-6.6c0-3.6-2.9-6.6-6.6-6.6c-3.6,0-6.6,2.9-6.6,6.6
		C358.8,180.1,361.7,183,365.3,183z M459.7,148c3.6,0,6.6-2.9,6.6-6.6c0-3.6-2.9-6.6-6.6-6.6s-6.6,2.9-6.6,6.6
		C453.2,145.1,456.1,148,459.7,148z M472.1,102.5c3.6,0,6.6-2.9,6.6-6.6s-2.9-6.6-6.6-6.6c-3.6,0-6.6,2.9-6.6,6.6
		S468.5,102.5,472.1,102.5z M398.9,126.2c3.6,0,6.6-2.9,6.6-6.6s-2.9-6.6-6.6-6.6c-3.6,0-6.6,2.9-6.6,6.6S395.2,126.2,398.9,126.2z
		 M362.4,134.2c3.6,0,6.6-2.9,6.6-6.6s-2.9-6.6-6.6-6.6c-3.6,0-6.6,2.9-6.6,6.6S358.8,134.2,362.4,134.2z M315.8,132.4
		c3.6,0,6.6-2.9,6.6-6.6s-2.9-6.6-6.6-6.6s-6.6,2.9-6.6,6.6S312.2,132.4,315.8,132.4z M295,133.5c3.6,0,6.6-2.9,6.6-6.6
		s-2.9-6.6-6.6-6.6s-6.6,2.9-6.6,6.6S291.4,133.5,295,133.5z M212.3,133.5c3.6,0,6.6-2.9,6.6-6.6s-2.9-6.6-6.6-6.6
		c-3.6,0-6.6,2.9-6.6,6.6S208.7,133.5,212.3,133.5z M335.8,108.3c3.6,0,6.6-2.9,6.6-6.6s-2.9-6.6-6.6-6.6s-6.6,2.9-6.6,6.6
		S332.2,108.3,335.8,108.3z M363.5,90.5c3.6,0,6.6-2.9,6.6-6.6s-2.9-6.6-6.6-6.6c-3.6,0-6.6,2.9-6.6,6.6S359.9,90.5,363.5,90.5z
		 M171.1,94.5c3.6,0,6.6-2.9,6.6-6.6s-2.9-6.6-6.6-6.6c-3.6,0-6.6,2.9-6.6,6.6S167.5,94.5,171.1,94.5z M124.5,114.5
		c3.6,0,6.6-2.9,6.6-6.6s-2.9-6.6-6.6-6.6c-3.6,0-6.6,2.9-6.6,6.6S120.8,114.5,124.5,114.5z M125.2,228.6c3.6,0,6.6-2.9,6.6-6.6
		c0-3.6-2.9-6.6-6.6-6.6s-6.6,2.9-6.6,6.6C118.6,225.6,121.6,228.6,125.2,228.6z M53.8,248.6c3.6,0,6.6-2.9,6.6-6.6
		c0-3.6-2.9-6.6-6.6-6.6s-6.6,2.9-6.6,6.6C47.2,245.7,50.2,248.6,53.8,248.6z M-33.7,204.5c3.6,0,6.6-2.9,6.6-6.6
		c0-3.6-2.9-6.6-6.6-6.6s-6.6,2.9-6.6,6.6C-40.2,201.6-37.3,204.5-33.7,204.5z M-65,214.4c3.6,0,6.6-2.9,6.6-6.6
		c0-3.6-2.9-6.6-6.6-6.6s-6.6,2.9-6.6,6.6C-71.6,211.4-68.6,214.4-65,214.4z M-108,184.1c3.6,0,6.6-2.9,6.6-6.6
		c0-3.6-2.9-6.6-6.6-6.6s-6.6,2.9-6.6,6.6C-114.6,181.2-111.6,184.1-108,184.1z M-144.1,199.8c3.6,0,6.6-2.9,6.6-6.6
		c0-3.6-2.9-6.6-6.6-6.6c-3.6,0-6.6,2.9-6.6,6.6C-150.6,196.8-147.7,199.8-144.1,199.8z M-114.6,117.4c3.6,0,6.6-2.9,6.6-6.6
		c0-3.6-2.9-6.6-6.6-6.6s-6.6,2.9-6.6,6.6C-121.1,114.5-118.2,117.4-114.6,117.4z M-177.6,161.2c3.6,0,6.6-2.9,6.6-6.6
		c0-3.6-2.9-6.6-6.6-6.6c-3.6,0-6.6,2.9-6.6,6.6C-184.2,158.2-181.2,161.2-177.6,161.2z M-215.1,188.5c3.6,0,6.6-2.9,6.6-6.6
		c0-3.6-2.9-6.6-6.6-6.6c-3.6,0-6.6,2.9-6.6,6.6C-221.7,185.6-218.8,188.5-215.1,188.5z M-202.8,174.6c3.6,0,6.6-2.9,6.6-6.6
		c0-3.6-2.9-6.6-6.6-6.6c-3.6,0-6.6,2.9-6.6,6.6C-209.3,171.7-206.4,174.6-202.8,174.6z M-297.9,113.1c3.6,0,6.6-2.9,6.6-6.6
		s-2.9-6.6-6.6-6.6c-3.6,0-6.6,2.9-6.6,6.6S-301.5,113.1-297.9,113.1z M-326.6,160.4c3.6,0,6.6-2.9,6.6-6.6c0-3.6-2.9-6.6-6.6-6.6
		s-6.6,2.9-6.6,6.6C-333.2,157.5-330.3,160.4-326.6,160.4z M-354.3,149.9c3.6,0,6.6-2.9,6.6-6.6c0-3.6-2.9-6.6-6.6-6.6
		c-3.6,0-6.6,2.9-6.6,6.6C-360.9,146.9-358,149.9-354.3,149.9z M-379.1,188.5c3.6,0,6.6-2.9,6.6-6.6c0-3.6-2.9-6.6-6.6-6.6
		s-6.6,2.9-6.6,6.6C-385.7,185.6-382.7,188.5-379.1,188.5z M-464,282.9c3.6,0,6.6-2.9,6.6-6.6s-2.9-6.6-6.6-6.6s-6.6,2.9-6.6,6.6
		S-467.6,282.9-464,282.9z M-354.3,263.6c3.6,0,6.6-2.9,6.6-6.6c0-3.6-2.9-6.6-6.6-6.6c-3.6,0-6.6,2.9-6.6,6.6
		C-360.9,260.6-358,263.6-354.3,263.6z M-326.6,238.4c3.6,0,6.6-2.9,6.6-6.6c0-3.6-2.9-6.6-6.6-6.6s-6.6,2.9-6.6,6.6
		C-333.2,235.5-330.3,238.4-326.6,238.4z M-374,335.7c3.6,0,6.6-2.9,6.6-6.6c0-3.6-2.9-6.6-6.6-6.6c-3.6,0-6.6,2.9-6.6,6.6
		C-380.6,332.8-377.6,335.7-374,335.7z M-246.8,293.4c3.6,0,6.6-2.9,6.6-6.6c0-3.6-2.9-6.6-6.6-6.6c-3.6,0-6.6,2.9-6.6,6.6
		C-253.4,290.5-250.5,293.4-246.8,293.4z M-465.8,362.3c3.6,0,6.6-2.9,6.6-6.6s-2.9-6.6-6.6-6.6s-6.6,2.9-6.6,6.6
		S-469.5,362.3-465.8,362.3z M-463.3,339c3.6,0,6.6-2.9,6.6-6.6s-2.9-6.6-6.6-6.6s-6.6,2.9-6.6,6.6S-466.9,339-463.3,339z
		 M-509.6,381.6c3.6,0,6.6-2.9,6.6-6.6s-2.9-6.6-6.6-6.6c-3.6,0-6.6,2.9-6.6,6.6S-513.2,381.6-509.6,381.6z M-417.7,110.1
		c3.6,0,6.6-2.9,6.6-6.6s-2.9-6.6-6.6-6.6s-6.6,2.9-6.6,6.6S-421.4,110.1-417.7,110.1z M-446.9,134.2c3.6,0,6.6-2.9,6.6-6.6
		s-2.9-6.6-6.6-6.6s-6.6,2.9-6.6,6.6S-450.5,134.2-446.9,134.2z M509.6,335.3c3.6,0,6.6-2.9,6.6-6.6s-2.9-6.6-6.6-6.6
		s-6.6,2.9-6.6,6.6S506,335.3,509.6,335.3z M530,335.3c3.6,0,6.6-2.9,6.6-6.6s-2.9-6.6-6.6-6.6s-6.6,2.9-6.6,6.6
		S526.4,335.3,530,335.3z M550.4,333.9c3.6,0,6.6-2.9,6.6-6.6c0-3.6-2.9-6.6-6.6-6.6c-3.6,0-6.6,2.9-6.6,6.6
		C543.9,330.9,546.8,333.9,550.4,333.9z M533.3,360.1c3.6,0,6.6-2.9,6.6-6.6c0-3.6-2.9-6.6-6.6-6.6c-3.6,0-6.6,2.9-6.6,6.6
		C526.8,357.2,529.7,360.1,533.3,360.1z M553.7,360.1c3.6,0,6.6-2.9,6.6-6.6c0-3.6-2.9-6.6-6.6-6.6s-6.6,2.9-6.6,6.6
		C547.2,357.2,550.1,360.1,553.7,360.1z M574.1,358.7c3.6,0,6.6-2.9,6.6-6.6c0-3.6-2.9-6.6-6.6-6.6c-3.6,0-6.6,2.9-6.6,6.6
		C567.6,355.7,570.5,358.7,574.1,358.7z M634.6,305.8c3.6,0,6.6-2.9,6.6-6.6c0-3.6-2.9-6.6-6.6-6.6c-3.6,0-6.6,2.9-6.6,6.6
		C628.1,302.9,631,305.8,634.6,305.8z M791.3,314.6c3.6,0,6.6-2.9,6.6-6.6s-2.9-6.6-6.6-6.6c-3.6,0-6.6,2.9-6.6,6.6
		S787.7,314.6,791.3,314.6z M848.9,352.5c3.6,0,6.6-2.9,6.6-6.6s-2.9-6.6-6.6-6.6c-3.6,0-6.6,2.9-6.6,6.6S845.3,352.5,848.9,352.5z
		 M896.3,370c3.6,0,6.6-2.9,6.6-6.6s-2.9-6.6-6.6-6.6c-3.6,0-6.6,2.9-6.6,6.6S892.6,370,896.3,370z M912.7,392.2
		c3.6,0,6.6-2.9,6.6-6.6s-2.9-6.6-6.6-6.6c-3.6,0-6.6,2.9-6.6,6.6S909,392.2,912.7,392.2z M973.5,433.7c3.6,0,6.6-2.9,6.6-6.6
		c0-3.6-2.9-6.6-6.6-6.6s-6.6,2.9-6.6,6.6C966.9,430.8,969.9,433.7,973.5,433.7z M899.5,451.9c3.6,0,6.6-2.9,6.6-6.6
		s-2.9-6.6-6.6-6.6s-6.6,2.9-6.6,6.6S895.9,451.9,899.5,451.9z M856.5,314.9c3.6,0,6.6-2.9,6.6-6.6c0-3.6-2.9-6.6-6.6-6.6
		c-3.6,0-6.6,2.9-6.6,6.6C850,312,852.9,314.9,856.5,314.9z M905.7,255.2c3.6,0,6.6-2.9,6.6-6.6c0-3.6-2.9-6.6-6.6-6.6
		c-3.6,0-6.6,2.9-6.6,6.6C899.2,252.2,902.1,255.2,905.7,255.2z M1031.8,270.5c3.6,0,6.6-2.9,6.6-6.6c0-3.6-2.9-6.6-6.6-6.6
		s-6.6,2.9-6.6,6.6C1025.2,267.5,1028.2,270.5,1031.8,270.5z M1055.9,181.6c3.6,0,6.6-2.9,6.6-6.6s-2.9-6.6-6.6-6.6
		s-6.6,2.9-6.6,6.6S1052.2,181.6,1055.9,181.6z M1023.8,168.1c3.6,0,6.6-2.9,6.6-6.6c0-3.6-2.9-6.6-6.6-6.6c-3.6,0-6.6,2.9-6.6,6.6
		C1017.2,165.1,1020.2,168.1,1023.8,168.1z M991.4,44.6c3.6,0,6.6-2.9,6.6-6.6s-2.9-6.6-6.6-6.6c-3.6,0-6.6,2.9-6.6,6.6
		S987.7,44.6,991.4,44.6z M1025.2,78.4c3.6,0,6.6-2.9,6.6-6.6s-2.9-6.6-6.6-6.6s-6.6,2.9-6.6,6.6S1021.6,78.4,1025.2,78.4z
		 M1055.9,70.8c3.6,0,6.6-2.9,6.6-6.6c0-3.6-2.9-6.6-6.6-6.6s-6.6,2.9-6.6,6.6C1049.3,67.9,1052.2,70.8,1055.9,70.8z M796.8,48.9
		c3.6,0,6.6-2.9,6.6-6.6s-2.9-6.6-6.6-6.6c-3.6,0-6.6,2.9-6.6,6.6S793.2,48.9,796.8,48.9z M769.8,37.3c3.6,0,6.6-2.9,6.6-6.6
		s-2.9-6.6-6.6-6.6c-3.6,0-6.6,2.9-6.6,6.6S766.2,37.3,769.8,37.3z M788.4,282.1c3.6,0,6.6-2.9,6.6-6.6s-2.9-6.6-6.6-6.6
		c-3.6,0-6.6,2.9-6.6,6.6S784.8,282.1,788.4,282.1z M788.4,252.3c3.6,0,6.6-2.9,6.6-6.6c0-3.6-2.9-6.6-6.6-6.6
		c-3.6,0-6.6,2.9-6.6,6.6C781.8,249.3,784.8,252.3,788.4,252.3z M804.1,199.8c3.6,0,6.6-2.9,6.6-6.6c0-3.6-2.9-6.6-6.6-6.6
		c-3.6,0-6.6,2.9-6.6,6.6C797.5,196.8,800.4,199.8,804.1,199.8z M843.8,154.6c3.6,0,6.6-2.9,6.6-6.6c0-3.6-2.9-6.6-6.6-6.6
		c-3.6,0-6.6,2.9-6.6,6.6C837.2,151.7,840.2,154.6,843.8,154.6z M803.7,163.3c3.6,0,6.6-2.9,6.6-6.6c0-3.6-2.9-6.6-6.6-6.6
		c-3.6,0-6.6,2.9-6.6,6.6C797.1,160.4,800.1,163.3,803.7,163.3z M737.4,177.2c3.6,0,6.6-2.9,6.6-6.6c0-3.6-2.9-6.6-6.6-6.6
		c-3.6,0-6.6,2.9-6.6,6.6C730.8,174.3,733.8,177.2,737.4,177.2z M704.2,210c3.6,0,6.6-2.9,6.6-6.6c0-3.6-2.9-6.6-6.6-6.6
		c-3.6,0-6.6,2.9-6.6,6.6C697.7,207.1,700.6,210,704.2,210z M670.7,218.4c3.6,0,6.6-2.9,6.6-6.6c0-3.6-2.9-6.6-6.6-6.6
		c-3.6,0-6.6,2.9-6.6,6.6C664.1,215.4,667.1,218.4,670.7,218.4z M646.3,229.3c3.6,0,6.6-2.9,6.6-6.6c0-3.6-2.9-6.6-6.6-6.6
		s-6.6,2.9-6.6,6.6C639.7,226.4,642.7,229.3,646.3,229.3z M623.7,223.5c3.6,0,6.6-2.9,6.6-6.6c0-3.6-2.9-6.6-6.6-6.6
		c-3.6,0-6.6,2.9-6.6,6.6C617.1,220.5,620.1,223.5,623.7,223.5z M585.4,207.4c3.6,0,6.6-2.9,6.6-6.6c0-3.6-2.9-6.6-6.6-6.6
		c-3.6,0-6.6,2.9-6.6,6.6C578.9,204.5,581.8,207.4,585.4,207.4z M608.4,245.7c3.6,0,6.6-2.9,6.6-6.6c0-3.6-2.9-6.6-6.6-6.6
		c-3.6,0-6.6,2.9-6.6,6.6C601.8,242.8,604.8,245.7,608.4,245.7z M523.8,242.4c3.6,0,6.6-2.9,6.6-6.6c0-3.6-2.9-6.6-6.6-6.6
		c-3.6,0-6.6,2.9-6.6,6.6C517.3,239.5,520.2,242.4,523.8,242.4z M555.2,218.4c3.6,0,6.6-2.9,6.6-6.6c0-3.6-2.9-6.6-6.6-6.6
		c-3.6,0-6.6,2.9-6.6,6.6C548.6,215.4,551.6,218.4,555.2,218.4z M850.3,104.3c3.6,0,6.6-2.9,6.6-6.6c0-3.6-2.9-6.6-6.6-6.6
		s-6.6,2.9-6.6,6.6C843.8,101.4,846.7,104.3,850.3,104.3z M880.6,191.8c3.6,0,6.6-2.9,6.6-6.6c0-3.6-2.9-6.6-6.6-6.6
		c-3.6,0-6.6,2.9-6.6,6.6C874,188.8,877,191.8,880.6,191.8z M903.5,184.8c3.6,0,6.6-2.9,6.6-6.6c0-3.6-2.9-6.6-6.6-6.6
		c-3.6,0-6.6,2.9-6.6,6.6C897,181.9,899.9,184.8,903.5,184.8z M928,149.1c3.6,0,6.6-2.9,6.6-6.6c0-3.6-2.9-6.6-6.6-6.6
		c-3.6,0-6.6,2.9-6.6,6.6C921.4,146.2,924.3,149.1,928,149.1z M948.4,123.3c3.6,0,6.6-2.9,6.6-6.6s-2.9-6.6-6.6-6.6
		s-6.6,2.9-6.6,6.6S944.7,123.3,948.4,123.3z M965.5,114.2c3.6,0,6.6-2.9,6.6-6.6s-2.9-6.6-6.6-6.6c-3.6,0-6.6,2.9-6.6,6.6
		S961.9,114.2,965.5,114.2z M998.3,101c3.6,0,6.6-2.9,6.6-6.6s-2.9-6.6-6.6-6.6c-3.6,0-6.6,2.9-6.6,6.6S994.7,101,998.3,101z
		 M912.7,85c3.6,0,6.6-2.9,6.6-6.6s-2.9-6.6-6.6-6.6c-3.6,0-6.6,2.9-6.6,6.6S909,85,912.7,85z M915.9,102.9c3.6,0,6.6-2.9,6.6-6.6
		s-2.9-6.6-6.6-6.6c-3.6,0-6.6,2.9-6.6,6.6S912.3,102.9,915.9,102.9z M930.9,82.8c3.6,0,6.6-2.9,6.6-6.6c0-3.6-2.9-6.6-6.6-6.6
		c-3.6,0-6.6,2.9-6.6,6.6C924.3,79.9,927.2,82.8,930.9,82.8z M869.3,94.5c3.6,0,6.6-2.9,6.6-6.6s-2.9-6.6-6.6-6.6
		c-3.6,0-6.6,2.9-6.6,6.6S865.7,94.5,869.3,94.5z M899.5,199.8c3.6,0,6.6-2.9,6.6-6.6c0-3.6-2.9-6.6-6.6-6.6s-6.6,2.9-6.6,6.6
		C893,196.8,895.9,199.8,899.5,199.8z M661.6,439.6c3.6,0,6.6-2.9,6.6-6.6s-2.9-6.6-6.6-6.6c-3.6,0-6.6,2.9-6.6,6.6
		S658,439.6,661.6,439.6z M602.2,668c3.6,0,6.6-2.9,6.6-6.6c0-3.6-2.9-6.6-6.6-6.6c-3.6,0-6.6,2.9-6.6,6.6
		C595.6,665.1,598.6,668,602.2,668z M628.1,719.4c3.6,0,6.6-2.9,6.6-6.6c0-3.6-2.9-6.6-6.6-6.6s-6.6,2.9-6.6,6.6
		C621.5,716.5,624.4,719.4,628.1,719.4z M640.1,707.7c3.6,0,6.6-2.9,6.6-6.6c0-3.6-2.9-6.6-6.6-6.6c-3.6,0-6.6,2.9-6.6,6.6
		C633.5,704.8,636.5,707.7,640.1,707.7z M655,712.8c3.6,0,6.6-2.9,6.6-6.6c0-3.6-2.9-6.6-6.6-6.6s-6.6,2.9-6.6,6.6
		C648.5,709.9,651.4,712.8,655,712.8z M631.7,736.5c3.6,0,6.6-2.9,6.6-6.6c0-3.6-2.9-6.6-6.6-6.6s-6.6,2.9-6.6,6.6
		C625.1,733.6,628.1,736.5,631.7,736.5z M640.1,750.7c3.6,0,6.6-2.9,6.6-6.6c0-3.6-2.9-6.6-6.6-6.6c-3.6,0-6.6,2.9-6.6,6.6
		C633.5,747.8,636.5,750.7,640.1,750.7z M950.9,673.1c3.6,0,6.6-2.9,6.6-6.6c0-3.6-2.9-6.6-6.6-6.6c-3.6,0-6.6,2.9-6.6,6.6
		C944.4,670.2,947.3,673.1,950.9,673.1z M1075.2,734.3c3.6,0,6.6-2.9,6.6-6.6c0-3.6-2.9-6.6-6.6-6.6s-6.6,2.9-6.6,6.6
		C1068.6,731.4,1071.5,734.3,1075.2,734.3z M1066.4,777.3c3.6,0,6.6-2.9,6.6-6.6c0-3.6-2.9-6.6-6.6-6.6c-3.6,0-6.6,2.9-6.6,6.6
		C1059.9,774.4,1062.8,777.3,1066.4,777.3z M1077.7,809.8c3.6,0,6.6-2.9,6.6-6.6c0-3.6-2.9-6.6-6.6-6.6s-6.6,2.9-6.6,6.6
		C1071.2,806.8,1074.1,809.8,1077.7,809.8z M1032.9,723.4c3.6,0,6.6-2.9,6.6-6.6c0-3.6-2.9-6.6-6.6-6.6c-3.6,0-6.6,2.9-6.6,6.6
		C1026.3,720.5,1029.3,723.4,1032.9,723.4z M1045.7,700.5c3.6,0,6.6-2.9,6.6-6.6c0-3.6-2.9-6.6-6.6-6.6s-6.6,2.9-6.6,6.6
		C1039.1,697.5,1042,700.5,1045.7,700.5z M1036.5,658.2c3.6,0,6.6-2.9,6.6-6.6c0-3.6-2.9-6.6-6.6-6.6c-3.6,0-6.6,2.9-6.6,6.6
		C1030,655.3,1032.9,658.2,1036.5,658.2z M1039.5,642.2c3.6,0,6.6-2.9,6.6-6.6c0-3.6-2.9-6.6-6.6-6.6s-6.6,2.9-6.6,6.6
		C1032.9,639.2,1035.8,642.2,1039.5,642.2z M971,625.8c3.6,0,6.6-2.9,6.6-6.6c0-3.6-2.9-6.6-6.6-6.6c-3.6,0-6.6,2.9-6.6,6.6
		C964.4,622.8,967.3,625.8,971,625.8z M960.4,585.7c3.6,0,6.6-2.9,6.6-6.6c0-3.6-2.9-6.6-6.6-6.6c-3.6,0-6.6,2.9-6.6,6.6
		C953.8,582.7,956.8,585.7,960.4,585.7z M930.9,585.7c3.6,0,6.6-2.9,6.6-6.6c0-3.6-2.9-6.6-6.6-6.6c-3.6,0-6.6,2.9-6.6,6.6
		C924.3,582.7,927.2,585.7,930.9,585.7z M913.7,554c3.6,0,6.6-2.9,6.6-6.6c0-3.6-2.9-6.6-6.6-6.6s-6.6,2.9-6.6,6.6
		C907.2,551,910.1,554,913.7,554z M985.9,546.3c3.6,0,6.6-2.9,6.6-6.6c0-3.6-2.9-6.6-6.6-6.6c-3.6,0-6.6,2.9-6.6,6.6
		C979.3,543.4,982.3,546.3,985.9,546.3z M998.6,569.3c3.6,0,6.6-2.9,6.6-6.6c0-3.6-2.9-6.6-6.6-6.6c-3.6,0-6.6,2.9-6.6,6.6
		C992.1,566.3,995,569.3,998.6,569.3z M819,636c3.6,0,6.6-2.9,6.6-6.6s-2.9-6.6-6.6-6.6c-3.6,0-6.6,2.9-6.6,6.6S815.4,636,819,636z
		 M902.8,790.8c3.6,0,6.6-2.9,6.6-6.6c0-3.6-2.9-6.6-6.6-6.6s-6.6,2.9-6.6,6.6C896.3,787.9,899.2,790.8,902.8,790.8z M902.8,805.4
		c3.6,0,6.6-2.9,6.6-6.6c0-3.6-2.9-6.6-6.6-6.6s-6.6,2.9-6.6,6.6C896.3,802.5,899.2,805.4,902.8,805.4z"/>
</g>
<g>
	<path class="st2" d="M526,863.7h17.4c12.2,0,21.3,4.1,21.3,16.3c0,11.8-9.1,17.1-21,17.1h-7.9v19.4H526V863.7z M542.9,889.6
		c8.2,0,12.1-3.1,12.1-9.6c0-6.6-4.3-8.8-12.5-8.8h-6.8v18.4H542.9z"/>
	<path class="st2" d="M591.9,863.7h18.6c11.5,0,20.3,3.9,20.3,15.7c0,11.4-8.8,16.5-20.3,16.5h-8.8v20.7h-9.8V863.7z M609.4,888.4
		c7.6,0,11.7-3,11.7-9c0-6.1-4.1-8.2-11.7-8.2h-7.8v17.2H609.4z M608.6,893.4l7.1-5.6l17.2,28.8h-11L608.6,893.4z"/>
	<path class="st2" d="M658.6,863.7h33.2v7.9h-23.4v13.5h19.8v7.9h-19.8v15.7h24.2v7.9h-34V863.7z"/>
	<path class="st2" d="M720.8,863.7h11.1l9.7,25.8c1.2,3.4,2.3,6.9,3.5,10.4h0.3c1.2-3.5,2.3-7,3.5-10.4l9.5-25.8h11.1v52.9h-9v-24.2
		c0-4.9,0.8-11.9,1.2-16.8h-0.3l-4.4,12.3l-9.1,23.8h-5.8l-9.1-23.8l-4.4-12.3h-0.3c0.5,4.9,1.2,11.9,1.2,16.8v24.2h-8.8V863.7z"/>
	<path class="st2" d="M800.5,863.7h9.8v52.9h-9.8V863.7z"/>
	<path class="st2" d="M841.1,863.7h33.2v7.9h-23.4v13.5h19.8v7.9h-19.8v15.7h24.2v7.9h-34V863.7z"/>
	<path class="st2" d="M903.3,863.7h18.6c11.5,0,20.3,3.9,20.3,15.7c0,11.4-8.8,16.5-20.3,16.5h-8.8v20.7h-9.8V863.7z M920.9,888.4
		c7.6,0,11.7-3,11.7-9c0-6.1-4.1-8.2-11.7-8.2h-7.8v17.2H920.9z M920,893.4l7.1-5.6l17.2,28.8h-11L920,893.4z"/>
</g>
<g>
	<path class="st2" d="M759.6,927.5h2.8l6.5,19.3h-2.6l-3.4-10.8c-0.7-2.2-1.3-4.3-1.9-6.5h-0.1c-0.6,2.2-1.2,4.3-1.9,6.5l-3.4,10.8
		H753L759.6,927.5z M756.5,938.9h8.9v2h-8.9V938.9z"/>
	<path class="st2" d="M776.8,941.5v-9h2.4v8.7c0,2.7,0.8,3.8,2.7,3.8c1.5,0,2.5-0.7,3.8-2.4v-10.1h2.4v14.3h-2l-0.2-2.2h-0.1
		c-1.3,1.6-2.7,2.6-4.7,2.6C778.2,947.1,776.8,945.2,776.8,941.5z"/>
	<path class="st2" d="M799.3,942.4v-7.9h-2.1v-1.8l2.2-0.1l0.3-4h2v4h3.9v2h-3.9v7.9c0,1.7,0.6,2.8,2.2,2.8c0.5,0,1.2-0.2,1.6-0.4
		l0.5,1.8c-0.8,0.3-1.8,0.5-2.6,0.5C800.3,947.1,799.3,945.2,799.3,942.4z"/>
	<path class="st2" d="M813.1,939.7c0-4.8,3.1-7.5,6.6-7.5c3.5,0,6.6,2.7,6.6,7.5c0,4.7-3.1,7.5-6.6,7.5
		C816.3,947.1,813.1,944.4,813.1,939.7z M823.9,939.7c0-3.3-1.7-5.5-4.1-5.5c-2.5,0-4.1,2.2-4.1,5.5s1.7,5.5,4.1,5.5
		C822.2,945.1,823.9,942.9,823.9,939.7z"/>
	<path class="st2" d="M836,932.5h2l0.2,2.1h0.1c1.2-1.3,2.7-2.4,4.4-2.4c2.2,0,3.3,1,3.9,2.7c1.5-1.6,3-2.7,4.7-2.7
		c2.9,0,4.3,1.9,4.3,5.6v9h-2.4V938c0-2.7-0.8-3.8-2.7-3.8c-1.1,0-2.3,0.7-3.6,2.2v10.3h-2.4V938c0-2.7-0.8-3.8-2.7-3.8
		c-1.1,0-2.3,0.7-3.6,2.2v10.3H836V932.5z"/>
	<path class="st2" d="M865.3,943.1c0-3.1,2.7-4.7,8.8-5.3c0-1.8-0.6-3.6-2.9-3.6c-1.6,0-3.1,0.8-4.3,1.5l-0.9-1.7
		c1.3-0.9,3.3-1.9,5.6-1.9c3.5,0,5,2.3,5,5.9v8.7h-2l-0.2-1.7h-0.1c-1.4,1.1-2.9,2.1-4.7,2.1C867,947.1,865.3,945.6,865.3,943.1z
		 M874,943.3v-4c-4.8,0.6-6.4,1.7-6.4,3.6c0,1.6,1.1,2.3,2.5,2.3C871.5,945.2,872.6,944.5,874,943.3z"/>
	<path class="st2" d="M886.8,942.4v-7.9h-2.1v-1.8l2.2-0.1l0.3-4h2v4h3.9v2h-3.9v7.9c0,1.7,0.6,2.8,2.2,2.8c0.5,0,1.2-0.2,1.6-0.4
		l0.5,1.8c-0.8,0.3-1.8,0.5-2.6,0.5C887.8,947.1,886.8,945.2,886.8,942.4z"/>
	<path class="st2" d="M901.7,928c0-0.9,0.7-1.6,1.7-1.6c0.9,0,1.7,0.6,1.7,1.6c0,0.9-0.7,1.6-1.7,1.6
		C902.4,929.6,901.7,928.9,901.7,928z M902.1,932.5h2.4v14.3h-2.4V932.5z"/>
	<path class="st2" d="M914.2,939.7c0-4.8,3.1-7.5,6.6-7.5c3.5,0,6.6,2.7,6.6,7.5c0,4.7-3.1,7.5-6.6,7.5
		C917.3,947.1,914.2,944.4,914.2,939.7z M924.9,939.7c0-3.3-1.7-5.5-4.1-5.5c-2.5,0-4.1,2.2-4.1,5.5s1.7,5.5,4.1,5.5
		C923.2,945.1,924.9,942.9,924.9,939.7z"/>
	<path class="st2" d="M937,932.5h2l0.2,2.1h0.1c1.4-1.3,2.8-2.4,4.8-2.4c3,0,4.4,1.9,4.4,5.6v9H946V938c0-2.7-0.8-3.8-2.7-3.8
		c-1.5,0-2.5,0.7-3.9,2.2v10.3H937V932.5z"/>
</g>
<path class="st3" d="M736.6,422.5c-2.9,28.9-0.6,58.1-4.2,87c-1.8,42.1-23.2,83.7-58.4,107.5c-14,10.3-28.1,20.6-42.1,30.9
	c-63.3,46.7-126.4,93.6-190.2,139.5c-0.4-46.5-0.1-93-0.2-139.5c0-4.5,0-9.1,0-13.7c1.1-62,34.9-121.9,86.3-156.2
	c37.3-26,74.2-52.4,111.6-78.3c-92.7-67.7-185.3-135.6-278.7-202.2c-42.4-31.1-73.7-79.2-78.9-132.2c-0.7-10.1-1-20.2-1-30.3h191.5
	c49.3,35.7,98.6,71.4,148,107c21.1,15.1,43.1,29.5,61.1,48.5c20.6,19.5,35.5,44.6,45.5,71.1c7.3,23.2,9.5,47,9.8,71
	C737.1,362.6,734.9,392.8,736.6,422.5z"/>
<path class="st4" d="M322.7,706.8c1.5,54.3-10.8,111.6-45.9,154.4c-16.9,22.4-40.3,38.4-63.7,53.5c-30,19-57.3,42-86.3,62.5
	c-3.6-33.9-2.5-68-2.4-102c0-5.7,0-11.5-0.1-17.2c0-73.9,0-147.9,0-221.8v-18.3c-0.2-13.5-0.2-26.9,0-40.4
	c-1.5-54.3,10.8-111.6,45.9-154.4c16.9-22.4,40.3-38.4,63.6-53.5c30.1-19,57.3-42,86.3-62.6c0,0,0,0.3,0.1,0.9
	c0.1,0.4,0.1,0.7,0.1,1.1c3.9,39,1.8,78.1,2.3,117.3c0,73.9,0,147.9,0,221.8v18.3C322.9,679.8,323,693.3,322.7,706.8z"/>
<linearGradient id="SVGID_00000026144819469484224820000017572638025544138637_" gradientUnits="userSpaceOnUse" x1="255.8344" y1="661.0812" x2="304.1057" y2="688.1132">
	<stop  offset="0" style="stop-color:#A60000"/>
	<stop  offset="0.6063" style="stop-color:#C60001"/>
	<stop  offset="0.9996" style="stop-color:#D60002"/>
</linearGradient>
<path style="fill:url(#SVGID_00000026144819469484224820000017572638025544138637_);" d="M322.7,426.2c0,73.9,0,147.9,0,221.8v18.3
	c0.2,13.5,0.2,27,0,40.4c1.5,54.3-10.8,111.6-45.9,154.4c-16.9,22.4-40.3,38.4-63.7,53.5c-30,19-57.3,42-86.3,62.5
	c-3.6-33.9-2.5-68-2.4-102C344.9,677.1,322.7,338,320.4,308.9C324.4,347.9,322.3,387,322.7,426.2z"/>
<linearGradient id="SVGID_00000132799986379250002430000001761108801638827962_" gradientUnits="userSpaceOnUse" x1="674.678" y1="697.9761" x2="519.1971" y2="447.1062">
	<stop  offset="0.5264" style="stop-color:#F6C602"/>
	<stop  offset="0.8382" style="stop-color:#CD9E01"/>
	<stop  offset="0.9992" style="stop-color:#BD8E00"/>
</linearGradient>
<path style="fill:url(#SVGID_00000132799986379250002430000001761108801638827962_);" d="M736.6,422.5c-2.9,28.9-0.6,58.1-4.2,87
	c-1.8,42.1-23.2,83.7-58.4,107.5c-14,10.3-28.1,20.6-42.1,30.9c-63.3,46.7-126.4,93.6-190.2,139.5c-0.4-46.5-0.1-93-0.2-139.5
	c0-4.5,0-9.1,0-13.7c1.1-62,34.9-121.9,86.3-156.2c37.3-26,74.2-52.4,111.6-78.3l97.2-67.1C737.1,362.6,734.9,392.8,736.6,422.5z"/>
</svg>
